HIERARCHY
ROOT newVegas:Hips
{
	OFFSET 0.000000 96.479958 0.000000
	CHANNELS 6 Xposition Yposition Zposition Xrotation Yrotation Zrotation
	JOINT newVegas:Pelvis
	{
		OFFSET 0.000000 0.000000 0.000000
		CHANNELS 3 Xrotation Yrotation Zrotation
		JOINT newVegas:LeftUpLeg
		{
			OFFSET 18.735201 -5.666702 -4.541200
			CHANNELS 3 Xrotation Yrotation Zrotation
			JOINT newVegas:LeftLeg
			{
				OFFSET -0.021200 -31.938179 0.493100
				CHANNELS 3 Xrotation Yrotation Zrotation
				JOINT newVegas:LeftFoot
				{
					OFFSET 0.021200 -31.938179 -4.336299
					CHANNELS 3 Xrotation Yrotation Zrotation
					JOINT newVegas:LeftToeBase
					{
						OFFSET 0.943001 -26.722000 15.023500
						CHANNELS 3 Xrotation Yrotation Zrotation
						End Site
						{
							OFFSET 0.000000 30.670183 0.000000
						}
					}
				}
				JOINT newVegas:Left_PantLeg
				{
					OFFSET 0.663870 -9.044666 -1.108900
					CHANNELS 3 Xrotation Yrotation Zrotation
					End Site
					{
						OFFSET 1.415995 20.635357 0.000000
					}
				}
			}
		}
		JOINT newVegas:RightUpLeg
		{
			OFFSET -18.735201 -5.666702 -4.541200
			CHANNELS 3 Xrotation Yrotation Zrotation
			JOINT newVegas:RightLeg
			{
				OFFSET 0.018946 -31.938133 0.493100
				CHANNELS 3 Xrotation Yrotation Zrotation
				JOINT newVegas:RightFoot
				{
					OFFSET -0.018946 -31.938126 -4.336299
					CHANNELS 3 Xrotation Yrotation Zrotation
					JOINT newVegas:RightToeBase
					{
						OFFSET -0.943001 -26.722004 15.023500
						CHANNELS 3 Xrotation Yrotation Zrotation
						End Site
						{
							OFFSET 0.000000 30.670187 0.000000
						}
					}
				}
				JOINT newVegas:Right_PantLeg
				{
					OFFSET -0.661674 -9.044716 -1.108900
					CHANNELS 3 Xrotation Yrotation Zrotation
					End Site
					{
						OFFSET -1.415958 20.635269 0.000000
					}
				}
			}
		}
	}
	JOINT newVegas:Spine
	{
		OFFSET 0.000000 10.199997 -0.299500
		CHANNELS 3 Xrotation Yrotation Zrotation
		JOINT newVegas:Spine1
		{
			OFFSET 0.000000 11.900002 -1.516600
			CHANNELS 3 Xrotation Yrotation Zrotation
			JOINT newVegas:Spine2
			{
				OFFSET 0.000000 13.600006 -2.842500
				CHANNELS 3 Xrotation Yrotation Zrotation
				JOINT newVegas:Neck
				{
					OFFSET 0.000000 9.624100 -2.890100
					CHANNELS 3 Xrotation Yrotation Zrotation
					JOINT newVegas:Head
					{
						OFFSET 0.000000 14.068802 -1.351900
						CHANNELS 3 Xrotation Yrotation Zrotation
						JOINT newVegas:Hair_Back
						{
							OFFSET 0.000000 3.231903 -17.524799
							CHANNELS 3 Xrotation Yrotation Zrotation
							End Site
							{
								OFFSET 0.000000 19.849884 0.000000
							}
						}
						JOINT newVegas:Hair_Front
						{
							OFFSET 0.000000 31.260406 4.573800
							CHANNELS 3 Xrotation Yrotation Zrotation
							JOINT newVegas:Hair_Front1
							{
								OFFSET 0.000000 2.284103 11.993300
								CHANNELS 3 Xrotation Yrotation Zrotation
								JOINT newVegas:Hair_Front2
								{
									OFFSET 0.000000 2.284103 11.993300
									CHANNELS 3 Xrotation Yrotation Zrotation
									End Site
									{
										OFFSET 0.000000 12.208862 0.000000
									}
								}
							}
						}
						JOINT newVegas:Jowel
						{
							OFFSET 0.000000 -7.458206 6.864100
							CHANNELS 3 Xrotation Yrotation Zrotation
							End Site
							{
								OFFSET 0.000000 19.849884 0.000000
							}
						}
					}
				}
				JOINT newVegas:LeftShoulder
				{
					OFFSET 15.263000 10.923401 -0.547700
					CHANNELS 3 Xrotation Yrotation Zrotation
					JOINT newVegas:LeftArm
					{
						OFFSET 25.438599 -2.830597 -13.032500
						CHANNELS 3 Xrotation Yrotation Zrotation
						JOINT newVegas:LeftForeArm
						{
							OFFSET 29.960503 0.000000 0.000000
							CHANNELS 3 Xrotation Yrotation Zrotation
							JOINT newVegas:LeftHand
							{
								OFFSET 27.849251 0.000000 0.000000
								CHANNELS 3 Xrotation Yrotation Zrotation
								JOINT newVegas:LeftHandThumb1
								{
									OFFSET 4.487587 -3.305161 6.305391
									CHANNELS 3 Xrotation Yrotation Zrotation
									JOINT newVegas:LeftHandThumb2
									{
										OFFSET 5.480453 -3.164139 3.164143
										CHANNELS 3 Xrotation Yrotation Zrotation
										JOINT newVegas:LeftHandThumb3
										{
											OFFSET 5.159721 -2.978973 2.978967
											CHANNELS 3 Xrotation Yrotation Zrotation
											End Site
											{
												OFFSET 2.494507 5.926697 1.738678
											}
										}
									}
								}
								JOINT newVegas:LeftHandIndex1
								{
									OFFSET 18.578728 -0.527832 5.208049
									CHANNELS 3 Xrotation Yrotation Zrotation
									JOINT newVegas:LeftHandIndex2
									{
										OFFSET 3.192009 0.000000 0.000000
										CHANNELS 3 Xrotation Yrotation Zrotation
										JOINT newVegas:LeftHandIndex3
										{
											OFFSET 3.835129 0.000000 0.000000
											CHANNELS 3 Xrotation Yrotation Zrotation
											End Site
											{
												OFFSET -0.034599 3.816971 0.371180
											}
										}
									}
								}
								JOINT newVegas:LeftHandMiddle1
								{
									OFFSET 18.476105 0.000000 0.000000
									CHANNELS 3 Xrotation Yrotation Zrotation
									JOINT newVegas:LeftHandMiddle2
									{
										OFFSET 3.324875 0.000000 0.000000
										CHANNELS 3 Xrotation Yrotation Zrotation
										JOINT newVegas:LeftHandMiddle3
										{
											OFFSET 4.596550 0.000000 0.000000
											CHANNELS 3 Xrotation Yrotation Zrotation
											End Site
											{
												OFFSET 0.057701 4.578827 0.399218
											}
										}
									}
								}
								JOINT newVegas:LeftHandRing1
								{
									OFFSET 17.732719 0.121887 -4.201567
									CHANNELS 3 Xrotation Yrotation Zrotation
									JOINT newVegas:LeftHandRing2
									{
										OFFSET 2.733170 0.000000 0.000000
										CHANNELS 3 Xrotation Yrotation Zrotation
										JOINT newVegas:LeftHandRing3
										{
											OFFSET 3.178268 0.000000 0.000000
											CHANNELS 3 Xrotation Yrotation Zrotation
											End Site
											{
												OFFSET 0.119102 3.170624 0.185394
											}
										}
									}
								}
								JOINT newVegas:LeftHandPinky1
								{
									OFFSET 15.989624 -0.606689 -7.535461
									CHANNELS 3 Xrotation Yrotation Zrotation
									JOINT newVegas:LeftHandPinky2
									{
										OFFSET 2.538986 0.000000 0.000000
										CHANNELS 3 Xrotation Yrotation Zrotation
										JOINT newVegas:LeftHandPinky3
										{
											OFFSET 2.593102 0.000000 0.000000
											CHANNELS 3 Xrotation Yrotation Zrotation
											End Site
											{
												OFFSET -0.150902 2.584198 0.152708
											}
										}
									}
								}
							}
							JOINT newVegas:Left_Sleeve
							{
								OFFSET 0.267448 -0.649796 0.577675
								CHANNELS 3 Xrotation Yrotation Zrotation
								End Site
								{
									OFFSET 0.000000 15.991241 0.000000
								}
							}
							JOINT newVegas:Left_CapeC
							{
								OFFSET 15.715958 -8.608795 -6.935905
								CHANNELS 3 Xrotation Yrotation Zrotation
								JOINT newVegas:Left_CapeC1
								{
									OFFSET 0.000000 -8.688499 0.000000
									CHANNELS 3 Xrotation Yrotation Zrotation
									End Site
									{
										OFFSET 0.000000 8.688499 0.000000
									}
								}
							}
						}
						JOINT newVegas:Left_CapeB
						{
							OFFSET 26.118385 -8.608795 -7.079235
							CHANNELS 3 Xrotation Yrotation Zrotation
							JOINT newVegas:Left_CapeB1
							{
								OFFSET 0.000000 -8.688499 0.000000
								CHANNELS 3 Xrotation Yrotation Zrotation
								End Site
								{
									OFFSET 0.000000 8.688499 0.000000
								}
							}
						}
						JOINT newVegas:Left_CapeA
						{
							OFFSET 5.115639 -8.608795 -10.395809
							CHANNELS 3 Xrotation Yrotation Zrotation
							JOINT newVegas:Left_CapeA1
							{
								OFFSET 0.000000 -8.688499 0.000000
								CHANNELS 3 Xrotation Yrotation Zrotation
								End Site
								{
									OFFSET 0.000000 8.688499 0.000000
								}
							}
						}
					}
				}
				JOINT newVegas:RightShoulder
				{
					OFFSET -15.263000 10.923401 -0.547700
					CHANNELS 3 Xrotation Yrotation Zrotation
					JOINT newVegas:RightArm
					{
						OFFSET -25.438599 -2.830597 -13.032500
						CHANNELS 3 Xrotation Yrotation Zrotation
						JOINT newVegas:RightForeArm
						{
							OFFSET -29.960503 0.000000 0.000000
							CHANNELS 3 Xrotation Yrotation Zrotation
							JOINT newVegas:RightHand
							{
								OFFSET -27.849251 0.000000 0.000000
								CHANNELS 3 Xrotation Yrotation Zrotation
								JOINT newVegas:RightHandThumb1
								{
									OFFSET -4.487587 -3.305161 6.305391
									CHANNELS 3 Xrotation Yrotation Zrotation
									JOINT newVegas:RightHandThumb2
									{
										OFFSET -5.480453 -3.164139 3.164143
										CHANNELS 3 Xrotation Yrotation Zrotation
										JOINT newVegas:RightHandThumb3
										{
											OFFSET -5.159721 -2.978973 2.978967
											CHANNELS 3 Xrotation Yrotation Zrotation
											End Site
											{
												OFFSET -2.494507 5.926697 1.738678
											}
										}
									}
								}
								JOINT newVegas:RightHandIndex1
								{
									OFFSET -18.578728 -0.527832 5.208049
									CHANNELS 3 Xrotation Yrotation Zrotation
									JOINT newVegas:RightHandIndex2
									{
										OFFSET -3.192009 0.000000 0.000000
										CHANNELS 3 Xrotation Yrotation Zrotation
										JOINT newVegas:RightHandIndex3
										{
											OFFSET -3.835129 0.000000 0.000000
											CHANNELS 3 Xrotation Yrotation Zrotation
											End Site
											{
												OFFSET 0.034599 3.816971 0.371180
											}
										}
									}
								}
								JOINT newVegas:RightHandMiddle1
								{
									OFFSET -18.476105 0.000000 0.000000
									CHANNELS 3 Xrotation Yrotation Zrotation
									JOINT newVegas:RightHandMiddle2
									{
										OFFSET -3.324875 0.000000 0.000000
										CHANNELS 3 Xrotation Yrotation Zrotation
										JOINT newVegas:RightHandMiddle3
										{
											OFFSET -4.596550 0.000000 0.000000
											CHANNELS 3 Xrotation Yrotation Zrotation
											End Site
											{
												OFFSET -0.057701 4.578827 0.399218
											}
										}
									}
								}
								JOINT newVegas:RightHandRing1
								{
									OFFSET -17.732719 0.121887 -4.201567
									CHANNELS 3 Xrotation Yrotation Zrotation
									JOINT newVegas:RightHandRing2
									{
										OFFSET -2.733170 0.000000 0.000000
										CHANNELS 3 Xrotation Yrotation Zrotation
										JOINT newVegas:RightHandRing3
										{
											OFFSET -3.178268 0.000000 0.000000
											CHANNELS 3 Xrotation Yrotation Zrotation
											End Site
											{
												OFFSET -0.119102 3.170624 0.185394
											}
										}
									}
								}
								JOINT newVegas:RightHandPinky1
								{
									OFFSET -15.989624 -0.606689 -7.535461
									CHANNELS 3 Xrotation Yrotation Zrotation
									JOINT newVegas:RightHandPinky2
									{
										OFFSET -2.538986 0.000000 0.000000
										CHANNELS 3 Xrotation Yrotation Zrotation
										JOINT newVegas:RightHandPinky3
										{
											OFFSET -2.593102 0.000000 0.000000
											CHANNELS 3 Xrotation Yrotation Zrotation
											End Site
											{
												OFFSET 0.150902 2.584198 0.152708
											}
										}
									}
								}
							}
							JOINT newVegas:Right_CapeC
							{
								OFFSET -15.715958 -8.608795 -6.935905
								CHANNELS 3 Xrotation Yrotation Zrotation
								JOINT newVegas:Right_CapeC1
								{
									OFFSET 0.000000 -8.688499 0.000000
									CHANNELS 3 Xrotation Yrotation Zrotation
									End Site
									{
										OFFSET 0.000000 8.688499 0.000000
									}
								}
							}
							JOINT newVegas:Right_Sleeve
							{
								OFFSET -0.267448 -0.649994 0.577675
								CHANNELS 3 Xrotation Yrotation Zrotation
								End Site
								{
									OFFSET 0.000000 15.991302 0.000000
								}
							}
						}
						JOINT newVegas:Right_CapeA
						{
							OFFSET -5.115540 -8.608795 -10.395824
							CHANNELS 3 Xrotation Yrotation Zrotation
							JOINT newVegas:Right_CapeA1
							{
								OFFSET 0.000000 -8.688499 0.000000
								CHANNELS 3 Xrotation Yrotation Zrotation
								End Site
								{
									OFFSET 0.000000 8.688499 0.000000
								}
							}
						}
						JOINT newVegas:Right_CapeB
						{
							OFFSET -26.118187 -8.608795 -7.079266
							CHANNELS 3 Xrotation Yrotation Zrotation
							JOINT newVegas:Right_CapeB1
							{
								OFFSET 0.000000 -8.688499 0.000000
								CHANNELS 3 Xrotation Yrotation Zrotation
								End Site
								{
									OFFSET 0.000000 8.688499 0.000000
								}
							}
						}
					}
				}
				JOINT newVegas:Left_Collar
				{
					OFFSET 18.625099 8.655502 8.828100
					CHANNELS 3 Xrotation Yrotation Zrotation
					JOINT newVegas:Left_Collar1
					{
						OFFSET 14.783401 10.540405 -1.259500
						CHANNELS 3 Xrotation Yrotation Zrotation
						End Site
						{
							OFFSET 0.000000 18.199875 0.000000
						}
					}
				}
				JOINT newVegas:Collar_Back
				{
					OFFSET 0.000000 15.630707 -20.132601
					CHANNELS 3 Xrotation Yrotation Zrotation
					End Site
					{
						OFFSET 0.000000 22.523010 0.000000
					}
				}
				JOINT newVegas:Left_Peck
				{
					OFFSET 17.239599 -5.132599 25.482599
					CHANNELS 3 Xrotation Yrotation Zrotation
					End Site
					{
						OFFSET 0.000000 22.523010 0.000000
					}
				}
				JOINT newVegas:Right_Peck
				{
					OFFSET -17.239599 -5.132202 25.482599
					CHANNELS 3 Xrotation Yrotation Zrotation
					End Site
					{
						OFFSET 0.000000 22.523010 0.000000
					}
				}
				JOINT newVegas:Right_Collar
				{
					OFFSET -18.625099 8.655792 8.828100
					CHANNELS 3 Xrotation Yrotation Zrotation
					JOINT newVegas:Right_Collar1
					{
						OFFSET -14.783401 10.539993 -1.259500
						CHANNELS 3 Xrotation Yrotation Zrotation
						End Site
						{
							OFFSET 0.000000 18.199631 0.000000
						}
					}
				}
			}
		}
		JOINT newVegas:Belly
		{
			OFFSET 0.000000 -6.540398 9.014299
			CHANNELS 3 Xrotation Yrotation Zrotation
			End Site
			{
				OFFSET 0.000000 11.566666 0.000000
			}
		}
	}
	JOINT newVegas:ElvisFacialAnim_Joint
	{
		OFFSET 1.000000 -95.330101 -8.825800
		CHANNELS 3 Xrotation Yrotation Zrotation
		End Site
		{
			OFFSET 0.000000 35.315800 0.000000
		}
	}
}
MOTION
Frames: 4
Frame Time: 0.016667
1.945858 72.547333 0.485649 27.170045 2.351174 9.868507 0.000000 -0.000000 -0.000001 -29.954293 3.681437 -1.050907 57.133112 16.646330 11.234118 -32.652044 23.280001 -4.907606 -0.000000 0.000002 0.000001 0.000002 0.000000 -0.000001 -97.210770 11.702027 -29.821675 82.195494 -6.234245 4.740258 -6.716403 -9.342388 7.165296 -0.000000 -0.000000 0.000000 0.000000 0.000002 -0.000001 32.118876 0.685716 10.269682 3.579138 -0.232310 -3.938541 3.140868 -0.180143 -2.796540 -3.322263 -0.296179 -0.430825 -3.322205 -0.296183 -0.430822 0.000002 0.000000 -0.000001 -3.322361 -0.296167 -0.430833 -3.322179 -0.296197 -0.430829 0.000002 -0.000001 -0.000001 0.000002 0.000000 -0.000001 0.921043 -8.099541 3.227719 -22.336003 21.630675 -27.124711 -0.000008 -42.110073 -0.000004 -19.024003 -3.343324 22.787934 -2.474310 3.056082 9.318486 2.660721 4.545125 0.290495 -0.000002 -0.000002 0.000003 2.838269 -9.738363 17.774749 2.946400 5.649630 -55.058056 0.000004 -0.000000 -0.000001 0.857998 -7.704097 6.320666 1.312429 4.048613 -35.909392 -0.000002 -0.000001 -0.000002 -0.649891 -5.105817 -7.087041 0.259770 1.877007 -15.757021 0.000000 0.000003 -0.000000 0.822096 3.662457 -17.520516 -0.018109 -4.056682 -0.491023 0.000002 -0.000002 0.000001 -0.000001 -0.000001 0.000001 -0.000001 -0.000001 0.000001 -0.000001 -0.000001 0.000001 -0.000005 0.000002 -0.000001 -0.000005 0.000002 -0.000001 -0.000005 0.000002 -0.000001 -0.000005 0.000002 -0.000001 -0.010491 -1.127503 -4.578591 -38.463357 11.015786 16.018139 -0.000006 33.301311 -0.000001 4.826452 13.233982 -11.856341 -9.751021 7.203368 -8.614253 10.689665 -27.430649 -3.226680 -0.000001 0.000002 -0.000001 1.269063 7.231739 -10.596070 2.736402 -5.531147 52.618917 -0.000002 -0.000002 -0.000000 0.008015 5.367924 0.238518 1.251957 -3.985330 34.867644 -0.000002 -0.000000 0.000000 -0.885797 3.067722 13.223271 0.268309 -1.916548 15.937061 0.000001 0.000001 -0.000000 -0.321203 -0.767574 24.169400 -0.000003 -0.000006 -0.000011 0.000001 -0.000002 -0.000002 0.000000 0.000001 0.000002 0.000000 0.000000 0.000002 0.000000 0.000000 0.000002 -0.000001 -0.000001 -0.000002 -0.000001 0.000000 -0.000002 -0.000001 -0.000001 -0.000002 -0.000001 0.000000 -0.000002 0.000001 -0.000000 -0.000000 0.000001 -0.000000 -0.000000 0.000001 -0.000000 -0.000000 0.000001 -0.000000 -0.000000 0.000001 -0.000000 -0.000000 0.000001 -0.000000 -0.000000 0.000001 -0.000000 -0.000000 0.000000 -0.000003 -0.000000 0.000000 -0.000000 -0.000001 
0.151064 72.359016 -0.736076 27.034562 3.025846 9.446483 0.000002 -0.000000 -0.000000 -22.624839 5.413807 -1.419801 52.072256 17.183431 11.353938 -30.264035 20.682376 -6.467207 -0.000001 -0.000002 -0.000003 -0.000003 0.000001 0.000002 -99.000505 10.186469 -27.815744 83.569441 -7.444749 4.813719 -7.468312 -10.566358 4.034878 0.000000 0.000000 -0.000000 -0.000000 -0.000001 0.000000 31.938583 0.688620 11.206560 1.746695 -0.159778 -3.884513 2.816142 -0.174964 -2.865950 -3.344791 -0.233354 -0.442362 -3.344794 -0.233352 -0.442360 0.000001 -0.000000 -0.000000 -3.344770 -0.233354 -0.442361 -3.344701 -0.233359 -0.442359 -0.000003 -0.000000 -0.000000 0.000001 -0.000000 -0.000000 0.950615 -8.072899 3.889880 -21.740646 19.374878 -24.833110 -0.000007 -40.497981 -0.000005 -21.811649 -2.030263 22.795026 -3.423931 1.166798 8.910753 3.907057 7.892909 0.677797 -0.000003 -0.000003 0.000003 2.785957 -9.507608 17.952367 2.521389 5.328948 -50.617391 -0.000002 -0.000000 0.000002 0.936092 -7.392437 7.336955 1.109643 3.753370 -32.929438 0.000000 0.000002 0.000001 -0.413180 -4.737528 -5.024290 0.216260 1.715471 -14.369296 0.000002 -0.000002 0.000001 0.804563 3.961658 -14.556257 -0.018108 -4.056674 -0.491022 -0.000001 0.000001 0.000001 0.000000 -0.000001 0.000001 0.000000 -0.000001 0.000001 0.000000 -0.000001 0.000001 -0.000004 0.000000 -0.000001 -0.000004 0.000000 -0.000001 -0.000004 0.000000 -0.000001 -0.000004 0.000000 -0.000001 -0.041848 -1.088702 -5.472470 -37.730484 11.255698 13.846339 -0.000008 30.222744 0.000004 3.476053 11.717292 -11.121255 -9.864131 7.038905 -9.737929 10.476962 -26.771632 -3.188222 -0.000000 -0.000001 0.000004 1.125898 6.596473 -10.416799 2.303795 -5.173565 47.983677 0.000001 0.000002 -0.000001 0.074971 4.442797 -0.718157 1.061524 -3.697648 32.025739 -0.000004 -0.000002 -0.000004 -0.535944 2.183966 10.913401 0.240706 -1.817137 15.089568 -0.000000 0.000001 -0.000001 0.015828 -1.314361 20.720494 0.000248 -0.058408 0.479358 0.000000 0.000002 0.000001 0.000000 -0.000003 -0.000002 -0.000001 -0.000003 -0.000002 -0.000000 -0.000002 -0.000002 -0.000003 0.000001 0.000001 -0.000003 0.000002 0.000001 -0.000003 0.000001 0.000001 -0.000003 0.000002 0.000001 -0.000001 0.000000 -0.000000 -0.000001 0.000000 -0.000000 -0.000001 0.000000 -0.000000 -0.000001 0.000000 -0.000000 -0.000001 0.000000 -0.000000 -0.000001 0.000000 -0.000000 -0.000001 0.000000 -0.000000 -0.000000 0.000000 0.000001 0.000002 -0.000000 -0.000000 
-1.574505 72.283844 -1.880264 27.016185 3.703683 9.073957 0.000001 -0.000000 -0.000000 -17.828614 6.747403 -1.278843 48.118140 18.246075 11.768165 -24.710479 15.699424 -8.859271 -0.000002 0.000003 -0.000003 0.000000 0.000001 -0.000000 -100.537413 9.608343 -26.872573 83.959117 -7.080706 5.071955 -5.439223 -12.333968 3.466146 0.000000 -0.000002 0.000000 0.000000 -0.000003 0.000000 31.524301 0.461644 11.906101 0.367797 -0.148799 -3.805486 2.452041 -0.190106 -2.912072 -3.367839 -0.168078 -0.455264 -3.367842 -0.168075 -0.455265 -0.000001 -0.000001 -0.000000 -3.367824 -0.168087 -0.455261 -3.367811 -0.168066 -0.455261 -0.000002 0.000000 -0.000000 -0.000001 -0.000001 -0.000000 0.971965 -7.959285 4.541529 -21.904137 16.849247 -22.534570 0.000003 -39.098516 -0.000003 -23.656393 -0.285775 22.312787 -4.431669 -0.800035 8.481214 5.173216 11.378096 1.071902 -0.000003 0.000001 0.000001 2.732506 -9.283913 18.115105 2.105912 4.960297 -45.986431 -0.000001 -0.000003 0.000001 1.004006 -7.077153 8.380219 0.914874 3.434622 -29.823150 -0.000001 0.000001 -0.000000 -0.204805 -4.345589 -2.882288 0.175129 1.546091 -12.923843 0.000003 -0.000003 0.000004 0.736816 4.283111 -11.462438 -0.018106 -4.056671 -0.491025 0.000000 0.000002 -0.000001 -0.000001 0.000000 -0.000001 -0.000001 0.000000 -0.000001 -0.000001 0.000000 -0.000001 -0.000003 -0.000002 -0.000001 -0.000003 -0.000002 -0.000001 -0.000003 -0.000002 -0.000001 -0.000003 -0.000002 -0.000001 -0.064566 -1.068758 -6.082270 -36.713257 10.859453 12.127224 0.000006 28.694308 -0.000000 2.129580 10.864732 -10.955109 -9.976095 6.810329 -10.969729 10.202502 -25.928776 -3.142062 0.000001 0.000003 0.000004 0.977040 5.907166 -10.235288 1.881494 -4.760791 43.109320 0.000001 0.000001 -0.000002 0.109514 3.416263 -1.705882 0.874891 -3.381625 29.003493 -0.000001 0.000000 0.000000 -0.246967 1.160329 8.534749 0.210979 -1.703149 14.122064 -0.000001 -0.000003 0.000002 0.293676 -2.003847 17.166642 0.001992 -0.166493 1.366395 -0.000000 -0.000000 0.000004 0.000002 -0.000002 -0.000000 0.000002 0.000000 0.000001 0.000001 -0.000001 -0.000000 -0.000001 0.000000 0.000001 -0.000001 0.000001 0.000001 -0.000001 0.000000 0.000001 -0.000001 0.000001 0.000001 -0.000001 0.000000 -0.000000 -0.000001 0.000000 -0.000000 -0.000001 0.000000 -0.000000 -0.000001 0.000000 -0.000000 -0.000001 0.000000 -0.000000 -0.000001 0.000000 -0.000000 -0.000001 0.000000 -0.000000 0.000001 0.000000 0.000001 0.000001 -0.000000 -0.000000 
-3.265173 72.325943 -3.021568 27.080121 4.393657 8.728438 -0.000001 -0.000000 0.000000 -13.904968 8.047990 -1.194115 43.981176 17.450319 11.750183 -18.680685 11.155447 -8.904607 0.000002 0.000001 -0.000001 -0.000001 -0.000002 -0.000001 -101.969021 8.629489 -25.655960 83.900446 -7.052934 5.304205 -4.028703 -13.935854 1.765801 -0.000000 -0.000002 0.000000 -0.000001 0.000002 -0.000000 30.929853 0.080703 12.379062 -0.692193 -0.174155 -3.672690 2.092772 -0.232368 -2.897373 -3.390926 -0.100960 -0.469422 -3.390905 -0.100958 -0.469417 0.000001 -0.000000 -0.000001 -3.390893 -0.100954 -0.469423 -3.390884 -0.100973 -0.469419 -0.000000 0.000001 0.000000 0.000001 -0.000000 -0.000001 0.987102 -7.809379 5.190974 -22.482766 14.152357 -20.326235 0.000015 -37.925872 0.000008 -24.388031 1.697824 21.369768 -5.487784 -2.818749 8.036941 6.442154 14.960894 1.469186 -0.000003 0.000004 -0.000001 2.678450 -9.065569 18.269448 1.713553 4.549991 -41.256149 -0.000004 0.000000 -0.000001 1.059764 -6.759191 9.437040 0.733901 3.098147 -26.647744 -0.000003 -0.000002 -0.000000 -0.032029 -3.934124 -0.698988 0.137376 1.371272 -11.440937 0.000000 -0.000001 -0.000000 0.614684 4.620204 -8.297759 -0.018103 -4.056675 -0.491022 0.000001 0.000005 -0.000000 -0.000003 -0.000000 -0.000000 -0.000003 -0.000000 -0.000000 -0.000003 0.000000 -0.000000 0.000001 0.000000 -0.000000 0.000001 0.000000 -0.000000 0.000001 0.000000 -0.000000 0.000001 0.000000 -0.000000 -0.084936 -1.078471 -6.512684 -35.552248 9.899990 10.725427 0.000002 28.127380 -0.000000 0.580162 10.215322 -10.972603 -10.097467 6.540340 -12.274484 9.885069 -24.958450 -3.090269 -0.000001 0.000001 0.000000 0.826398 5.179832 -10.052944 1.483139 -4.297288 38.067902 0.000004 -0.000002 -0.000001 0.106506 2.319779 -2.714666 0.698497 -3.042296 25.856074 0.000001 -0.000001 0.000003 -0.042784 0.035406 6.110207 0.180845 -1.578609 13.069878 -0.000000 -0.000003 0.000004 0.477113 -2.801947 13.540367 0.005161 -0.268483 2.203547 0.000002 -0.000000 -0.000000 0.000001 0.000001 0.000001 0.000001 -0.000001 0.000001 0.000000 0.000001 0.000001 -0.000001 -0.000001 -0.000000 -0.000001 0.000000 -0.000000 -0.000001 -0.000001 -0.000000 -0.000001 0.000000 -0.000000 -0.000000 -0.000001 -0.000000 -0.000000 -0.000001 -0.000000 -0.000000 -0.000001 -0.000000 -0.000000 -0.000001 -0.000000 -0.000000 -0.000001 -0.000000 -0.000000 -0.000001 -0.000000 -0.000000 -0.000001 -0.000000 -0.000000 0.000000 0.000001 -0.000001 -0.000000 0.000000 
